<?xml version="1.0" encoding="UTF-8" standalone="no"?>
<!DOCTYPE svg PUBLIC "-//W3C//DTD SVG 1.1//EN"
 "http://www.w3.org/Graphics/SVG/1.1/DTD/svg11.dtd">
<!-- Generated by graphviz version 2.43.0 (0)
 -->
<!-- Pages: 1 -->
<svg width="1010pt" height="572pt"
 viewBox="0.00 0.00 1010.00 572.00" xmlns="http://www.w3.org/2000/svg" xmlns:xlink="http://www.w3.org/1999/xlink">
<g id="graph0" class="graph" transform="scale(1 1) rotate(0) translate(4 568)">
<polygon fill="white" stroke="transparent" points="-4,4 -4,-568 1006,-568 1006,4 -4,4"/>
<g id="clust1" class="cluster">
<title>cluster~</title>
<path fill="none" stroke="black" stroke-width="2.6" d="M20,-8C20,-8 982,-8 982,-8 988,-8 994,-14 994,-20 994,-20 994,-544 994,-544 994,-550 988,-556 982,-556 982,-556 20,-556 20,-556 14,-556 8,-550 8,-544 8,-544 8,-20 8,-20 8,-14 14,-8 20,-8"/>
<text text-anchor="middle" x="501" y="-541.6" font-family="Arial Black" font-size="13.00">practice_1</text>
</g>
<g id="clust2" class="cluster">
<title>cluster~/lib</title>
<path fill="none" stroke="black" stroke-width="2.6" d="M28,-16C28,-16 974,-16 974,-16 980,-16 986,-22 986,-28 986,-28 986,-432 986,-432 986,-438 980,-444 974,-444 974,-444 28,-444 28,-444 22,-444 16,-438 16,-432 16,-432 16,-28 16,-28 16,-22 22,-16 28,-16"/>
<text text-anchor="middle" x="501" y="-429.6" font-family="Arial Black" font-size="13.00">lib</text>
</g>
<g id="clust3" class="cluster">
<title>cluster~/lib/features</title>
<path fill="none" stroke="black" stroke-width="2.6" d="M36,-24C36,-24 966,-24 966,-24 972,-24 978,-30 978,-36 978,-36 978,-402 978,-402 978,-408 972,-414 966,-414 966,-414 36,-414 36,-414 30,-414 24,-408 24,-402 24,-402 24,-36 24,-36 24,-30 30,-24 36,-24"/>
<text text-anchor="middle" x="501" y="-399.6" font-family="Arial Black" font-size="13.00">features</text>
</g>
<g id="clust4" class="cluster">
<title>cluster~/lib/features/core</title>
<path fill="none" stroke="black" stroke-width="2.6" d="M44,-32C44,-32 958,-32 958,-32 964,-32 970,-38 970,-44 970,-44 970,-372 970,-372 970,-378 964,-384 958,-384 958,-384 44,-384 44,-384 38,-384 32,-378 32,-372 32,-372 32,-44 32,-44 32,-38 38,-32 44,-32"/>
<text text-anchor="middle" x="501" y="-369.6" font-family="Arial Black" font-size="13.00">core</text>
</g>
<g id="clust5" class="cluster">
<title>cluster~/lib/features/core/domain</title>
<path fill="none" stroke="black" stroke-width="2.6" d="M52,-48C52,-48 316,-48 316,-48 322,-48 328,-54 328,-60 328,-60 328,-230 328,-230 328,-236 322,-242 316,-242 316,-242 52,-242 52,-242 46,-242 40,-236 40,-230 40,-230 40,-60 40,-60 40,-54 46,-48 52,-48"/>
<text text-anchor="middle" x="184" y="-227.6" font-family="Arial Black" font-size="13.00">domain</text>
</g>
<g id="clust6" class="cluster">
<title>cluster~/lib/features/core/domain/entities</title>
<path fill="none" stroke="black" stroke-width="2.6" d="M60,-56C60,-56 308,-56 308,-56 314,-56 320,-62 320,-68 320,-68 320,-118 320,-118 320,-124 314,-130 308,-130 308,-130 60,-130 60,-130 54,-130 48,-124 48,-118 48,-118 48,-68 48,-68 48,-62 54,-56 60,-56"/>
<text text-anchor="middle" x="184" y="-115.6" font-family="Arial Black" font-size="13.00">entities</text>
</g>
<g id="clust7" class="cluster">
<title>cluster~/lib/features/core/domain/repositories</title>
<path fill="none" stroke="black" stroke-width="2.6" d="M172,-138C172,-138 308,-138 308,-138 314,-138 320,-144 320,-150 320,-150 320,-200 320,-200 320,-206 314,-212 308,-212 308,-212 172,-212 172,-212 166,-212 160,-206 160,-200 160,-200 160,-150 160,-150 160,-144 166,-138 172,-138"/>
<text text-anchor="middle" x="240" y="-197.6" font-family="Arial Black" font-size="13.00">repositories</text>
</g>
<g id="clust8" class="cluster">
<title>cluster~/lib/features/core/presentation</title>
<path fill="none" stroke="black" stroke-width="2.6" d="M203,-250C203,-250 277,-250 277,-250 283,-250 289,-256 289,-262 289,-262 289,-312 289,-312 289,-318 283,-324 277,-324 277,-324 203,-324 203,-324 197,-324 191,-318 191,-312 191,-312 191,-262 191,-262 191,-256 197,-250 203,-250"/>
<text text-anchor="middle" x="240" y="-309.6" font-family="Arial Black" font-size="13.00">presentation</text>
</g>
<g id="clust9" class="cluster">
<title>cluster~/lib/features/core/data</title>
<path fill="none" stroke="black" stroke-width="2.6" d="M348,-40C348,-40 950,-40 950,-40 956,-40 962,-46 962,-52 962,-52 962,-342 962,-342 962,-348 956,-354 950,-354 950,-354 348,-354 348,-354 342,-354 336,-348 336,-342 336,-342 336,-52 336,-52 336,-46 342,-40 348,-40"/>
<text text-anchor="middle" x="649" y="-339.6" font-family="Arial Black" font-size="13.00">data</text>
</g>
<g id="clust10" class="cluster">
<title>cluster~/lib/features/core/data/debug</title>
<path fill="none" stroke="black" stroke-width="2.6" d="M356,-250C356,-250 542,-250 542,-250 548,-250 554,-256 554,-262 554,-262 554,-312 554,-312 554,-318 548,-324 542,-324 542,-324 356,-324 356,-324 350,-324 344,-318 344,-312 344,-312 344,-262 344,-262 344,-256 350,-250 356,-250"/>
<text text-anchor="middle" x="449" y="-309.6" font-family="Arial Black" font-size="13.00">debug</text>
</g>
<g id="clust11" class="cluster">
<title>cluster~/lib/features/core/data/osm</title>
<path fill="none" stroke="black" stroke-width="2.6" d="M574,-48C574,-48 748,-48 748,-48 754,-48 760,-54 760,-60 760,-60 760,-312 760,-312 760,-318 754,-324 748,-324 748,-324 574,-324 574,-324 568,-324 562,-318 562,-312 562,-312 562,-60 562,-60 562,-54 568,-48 574,-48"/>
<text text-anchor="middle" x="661" y="-309.6" font-family="Arial Black" font-size="13.00">osm</text>
</g>
<g id="clust12" class="cluster">
<title>cluster~/lib/features/core/data/osm/models</title>
<path fill="none" stroke="black" stroke-width="2.6" d="M612,-56C612,-56 710,-56 710,-56 716,-56 722,-62 722,-68 722,-68 722,-118 722,-118 722,-124 716,-130 710,-130 710,-130 612,-130 612,-130 606,-130 600,-124 600,-118 600,-118 600,-68 600,-68 600,-62 606,-56 612,-56"/>
<text text-anchor="middle" x="661" y="-115.6" font-family="Arial Black" font-size="13.00">models</text>
</g>
<g id="clust13" class="cluster">
<title>cluster~/lib/features/core/data/weatherapi</title>
<path fill="none" stroke="black" stroke-width="2.6" d="M780,-48C780,-48 942,-48 942,-48 948,-48 954,-54 954,-60 954,-60 954,-312 954,-312 954,-318 948,-324 942,-324 942,-324 780,-324 780,-324 774,-324 768,-318 768,-312 768,-312 768,-60 768,-60 768,-54 774,-48 780,-48"/>
<text text-anchor="middle" x="861" y="-309.6" font-family="Arial Black" font-size="13.00">weatherapi</text>
</g>
<g id="clust14" class="cluster">
<title>cluster~/lib/features/core/data/weatherapi/models</title>
<path fill="none" stroke="black" stroke-width="2.6" d="M788,-56C788,-56 934,-56 934,-56 940,-56 946,-62 946,-68 946,-68 946,-118 946,-118 946,-124 940,-130 934,-130 934,-130 788,-130 788,-130 782,-130 776,-124 776,-118 776,-118 776,-68 776,-68 776,-62 782,-56 788,-56"/>
<text text-anchor="middle" x="861" y="-115.6" font-family="Arial Black" font-size="13.00">models</text>
</g>
<g id="clust15" class="cluster">
<title>cluster~/bin</title>
<path fill="none" stroke="black" stroke-width="2.6" d="M779,-452C779,-452 857,-452 857,-452 863,-452 869,-458 869,-464 869,-464 869,-514 869,-514 869,-520 863,-526 857,-526 857,-526 779,-526 779,-526 773,-526 767,-520 767,-514 767,-514 767,-464 767,-464 767,-458 773,-452 779,-452"/>
<text text-anchor="middle" x="818" y="-511.6" font-family="Arial Black" font-size="13.00">bin</text>
</g>
<!-- /lib/features/core/domain/entities/search_query.dart -->
<g id="node1" class="node">
<title>/lib/features/core/domain/entities/search_query.dart</title>
<path fill="Lavender" stroke="black" stroke-width="1.3" d="M150.5,-100C150.5,-100 67.5,-100 67.5,-100 61.5,-100 55.5,-94 55.5,-88 55.5,-88 55.5,-76 55.5,-76 55.5,-70 61.5,-64 67.5,-64 67.5,-64 150.5,-64 150.5,-64 156.5,-64 162.5,-70 162.5,-76 162.5,-76 162.5,-88 162.5,-88 162.5,-94 156.5,-100 150.5,-100"/>
<text text-anchor="middle" x="109" y="-78.5" font-family="Arial" font-size="15.00">search_query</text>
</g>
<!-- /lib/features/core/domain/entities/search_response.dart -->
<g id="node2" class="node">
<title>/lib/features/core/domain/entities/search_response.dart</title>
<path fill="Lavender" stroke="black" stroke-width="1.3" d="M299.5,-100C299.5,-100 192.5,-100 192.5,-100 186.5,-100 180.5,-94 180.5,-88 180.5,-88 180.5,-76 180.5,-76 180.5,-70 186.5,-64 192.5,-64 192.5,-64 299.5,-64 299.5,-64 305.5,-64 311.5,-70 311.5,-76 311.5,-76 311.5,-88 311.5,-88 311.5,-94 305.5,-100 299.5,-100"/>
<text text-anchor="middle" x="246" y="-78.5" font-family="Arial" font-size="15.00">search_response</text>
</g>
<!-- /lib/features/core/domain/repositories/weather_repository.dart -->
<g id="node3" class="node">
<title>/lib/features/core/domain/repositories/weather_repository.dart</title>
<path fill="Lavender" stroke="black" stroke-width="1.3" d="M300,-182C300,-182 180,-182 180,-182 174,-182 168,-176 168,-170 168,-170 168,-158 168,-158 168,-152 174,-146 180,-146 180,-146 300,-146 300,-146 306,-146 312,-152 312,-158 312,-158 312,-170 312,-170 312,-176 306,-182 300,-182"/>
<text text-anchor="middle" x="240" y="-160.5" font-family="Arial" font-size="15.00">weather_repository</text>
</g>
<!-- /lib/features/core/domain/repositories/weather_repository.dart&#45;&gt;/lib/features/core/domain/entities/search_query.dart -->
<g id="edge1" class="edge">
<title>/lib/features/core/domain/repositories/weather_repository.dart&#45;&gt;/lib/features/core/domain/entities/search_query.dart</title>
<path fill="none" stroke="black" stroke-width="1.3" d="M200.59,-145.84C190.72,-141.09 180.3,-135.67 171,-130 159.53,-123.01 147.62,-114.36 137.34,-106.4"/>
<polygon fill="black" stroke="black" stroke-width="1.3" points="139.5,-103.64 129.48,-100.2 135.17,-109.14 139.5,-103.64"/>
</g>
<!-- /lib/features/core/domain/repositories/weather_repository.dart&#45;&gt;/lib/features/core/domain/entities/search_response.dart -->
<g id="edge2" class="edge">
<title>/lib/features/core/domain/repositories/weather_repository.dart&#45;&gt;/lib/features/core/domain/entities/search_response.dart</title>
<path fill="none" stroke="black" stroke-width="1.3" d="M241.3,-145.64C242.08,-135.3 243.08,-121.94 243.96,-110.22"/>
<polygon fill="black" stroke="black" stroke-width="1.3" points="247.46,-110.28 244.72,-100.05 240.48,-109.76 247.46,-110.28"/>
</g>
<!-- /lib/features/core/presentation/app.dart -->
<g id="node4" class="node">
<title>/lib/features/core/presentation/app.dart</title>
<path fill="Lavender" stroke="black" stroke-width="1.3" d="M255,-294C255,-294 225,-294 225,-294 219,-294 213,-288 213,-282 213,-282 213,-270 213,-270 213,-264 219,-258 225,-258 225,-258 255,-258 255,-258 261,-258 267,-264 267,-270 267,-270 267,-282 267,-282 267,-288 261,-294 255,-294"/>
<text text-anchor="middle" x="240" y="-272.5" font-family="Arial" font-size="15.00">app</text>
</g>
<!-- /lib/features/core/presentation/app.dart&#45;&gt;/lib/features/core/domain/entities/search_query.dart -->
<g id="edge3" class="edge">
<title>/lib/features/core/presentation/app.dart&#45;&gt;/lib/features/core/domain/entities/search_query.dart</title>
<path fill="none" stroke="black" stroke-width="1.3" d="M212.62,-270.68C194.22,-266.4 170.72,-258.05 156,-242 122.3,-205.24 112.69,-145.41 109.99,-110.58"/>
<polygon fill="black" stroke="black" stroke-width="1.3" points="113.46,-109.97 109.34,-100.2 106.48,-110.41 113.46,-109.97"/>
</g>
<!-- /lib/features/core/presentation/app.dart&#45;&gt;/lib/features/core/domain/repositories/weather_repository.dart -->
<g id="edge4" class="edge">
<title>/lib/features/core/presentation/app.dart&#45;&gt;/lib/features/core/domain/repositories/weather_repository.dart</title>
<path fill="none" stroke="black" stroke-width="1.3" d="M240,-257.81C240,-240.21 240,-212.61 240,-192.07"/>
<polygon fill="black" stroke="black" stroke-width="1.3" points="243.5,-192.07 240,-182.07 236.5,-192.07 243.5,-192.07"/>
</g>
<!-- /lib/features/core/data/debug/weather_repository_debug.dart -->
<g id="node5" class="node">
<title>/lib/features/core/data/debug/weather_repository_debug.dart</title>
<path fill="Lavender" stroke="black" stroke-width="1.3" d="M534,-294C534,-294 364,-294 364,-294 358,-294 352,-288 352,-282 352,-282 352,-270 352,-270 352,-264 358,-258 364,-258 364,-258 534,-258 534,-258 540,-258 546,-264 546,-270 546,-270 546,-282 546,-282 546,-288 540,-294 534,-294"/>
<text text-anchor="middle" x="449" y="-272.5" font-family="Arial" font-size="15.00">weather_repository_debug</text>
</g>
<!-- /lib/features/core/data/debug/weather_repository_debug.dart&#45;&gt;/lib/features/core/domain/entities/search_query.dart -->
<g id="edge5" class="edge">
<title>/lib/features/core/data/debug/weather_repository_debug.dart&#45;&gt;/lib/features/core/domain/entities/search_query.dart</title>
<path fill="none" stroke="black" stroke-width="1.3" d="M407.47,-257.95C399.46,-253.51 391.54,-248.19 385,-242 346.09,-205.15 369.79,-165.84 324,-138 294.91,-120.31 202.98,-141.69 171,-130 157.25,-124.97 144.03,-115.78 133.36,-106.85"/>
<polygon fill="black" stroke="black" stroke-width="1.3" points="135.55,-104.11 125.72,-100.14 130.93,-109.37 135.55,-104.11"/>
</g>
<!-- /lib/features/core/data/debug/weather_repository_debug.dart&#45;&gt;/lib/features/core/domain/entities/search_response.dart -->
<g id="edge6" class="edge">
<title>/lib/features/core/data/debug/weather_repository_debug.dart&#45;&gt;/lib/features/core/domain/entities/search_response.dart</title>
<path fill="none" stroke="black" stroke-width="1.3" d="M445.35,-257.84C438.42,-229.24 420.74,-171.65 385,-138 367.23,-121.27 343.75,-109.4 321.16,-101.09"/>
<polygon fill="black" stroke="black" stroke-width="1.3" points="322.14,-97.73 311.55,-97.74 319.84,-104.34 322.14,-97.73"/>
</g>
<!-- /lib/features/core/data/debug/weather_repository_debug.dart&#45;&gt;/lib/features/core/domain/repositories/weather_repository.dart -->
<g id="edge7" class="edge">
<title>/lib/features/core/data/debug/weather_repository_debug.dart&#45;&gt;/lib/features/core/domain/repositories/weather_repository.dart</title>
<path fill="none" stroke="black" stroke-width="1.3" d="M408.72,-257.9C397.68,-252.99 385.79,-247.47 375,-242 341.05,-224.8 303.53,-203.18 276.68,-187.23"/>
<polygon fill="black" stroke="black" stroke-width="1.3" points="278.38,-184.17 268,-182.05 274.79,-190.18 278.38,-184.17"/>
</g>
<!-- /lib/features/core/data/osm/osm_api.dart -->
<g id="node6" class="node">
<title>/lib/features/core/data/osm/osm_api.dart</title>
<path fill="Lavender" stroke="black" stroke-width="1.3" d="M685.5,-182C685.5,-182 636.5,-182 636.5,-182 630.5,-182 624.5,-176 624.5,-170 624.5,-170 624.5,-158 624.5,-158 624.5,-152 630.5,-146 636.5,-146 636.5,-146 685.5,-146 685.5,-146 691.5,-146 697.5,-152 697.5,-158 697.5,-158 697.5,-170 697.5,-170 697.5,-176 691.5,-182 685.5,-182"/>
<text text-anchor="middle" x="661" y="-160.5" font-family="Arial" font-size="15.00">osm_api</text>
</g>
<!-- /lib/features/core/data/osm/models/osm_weather.dart -->
<g id="node8" class="node">
<title>/lib/features/core/data/osm/models/osm_weather.dart</title>
<path fill="Lavender" stroke="black" stroke-width="1.3" d="M702.5,-100C702.5,-100 619.5,-100 619.5,-100 613.5,-100 607.5,-94 607.5,-88 607.5,-88 607.5,-76 607.5,-76 607.5,-70 613.5,-64 619.5,-64 619.5,-64 702.5,-64 702.5,-64 708.5,-64 714.5,-70 714.5,-76 714.5,-76 714.5,-88 714.5,-88 714.5,-94 708.5,-100 702.5,-100"/>
<text text-anchor="middle" x="661" y="-78.5" font-family="Arial" font-size="15.00">osm_weather</text>
</g>
<!-- /lib/features/core/data/osm/osm_api.dart&#45;&gt;/lib/features/core/data/osm/models/osm_weather.dart -->
<g id="edge8" class="edge">
<title>/lib/features/core/data/osm/osm_api.dart&#45;&gt;/lib/features/core/data/osm/models/osm_weather.dart</title>
<path fill="none" stroke="black" stroke-width="1.3" d="M661,-145.64C661,-135.3 661,-121.94 661,-110.22"/>
<polygon fill="black" stroke="black" stroke-width="1.3" points="664.5,-110.05 661,-100.05 657.5,-110.05 664.5,-110.05"/>
</g>
<!-- /lib/features/core/data/osm/weather_repository_osm.dart -->
<g id="node7" class="node">
<title>/lib/features/core/data/osm/weather_repository_osm.dart</title>
<path fill="Lavender" stroke="black" stroke-width="1.3" d="M739.5,-294C739.5,-294 582.5,-294 582.5,-294 576.5,-294 570.5,-288 570.5,-282 570.5,-282 570.5,-270 570.5,-270 570.5,-264 576.5,-258 582.5,-258 582.5,-258 739.5,-258 739.5,-258 745.5,-258 751.5,-264 751.5,-270 751.5,-270 751.5,-282 751.5,-282 751.5,-288 745.5,-294 739.5,-294"/>
<text text-anchor="middle" x="661" y="-272.5" font-family="Arial" font-size="15.00">weather_repository_osm</text>
</g>
<!-- /lib/features/core/data/osm/weather_repository_osm.dart&#45;&gt;/lib/features/core/domain/entities/search_query.dart -->
<g id="edge10" class="edge">
<title>/lib/features/core/data/osm/weather_repository_osm.dart&#45;&gt;/lib/features/core/domain/entities/search_query.dart</title>
<path fill="none" stroke="black" stroke-width="1.3" d="M597.01,-257.96C584.16,-254.96 570.7,-252.13 558,-250 520.58,-243.73 507.66,-257.43 473,-242 410.65,-214.24 423.05,-164.15 360,-138 321.17,-121.9 210.55,-144.24 171,-130 157.23,-125.04 144,-115.86 133.33,-106.92"/>
<polygon fill="black" stroke="black" stroke-width="1.3" points="135.52,-104.18 125.7,-100.2 130.9,-109.43 135.52,-104.18"/>
</g>
<!-- /lib/features/core/data/osm/weather_repository_osm.dart&#45;&gt;/lib/features/core/domain/entities/search_response.dart -->
<g id="edge11" class="edge">
<title>/lib/features/core/data/osm/weather_repository_osm.dart&#45;&gt;/lib/features/core/domain/entities/search_response.dart</title>
<path fill="none" stroke="black" stroke-width="1.3" d="M585.41,-257.94C567.54,-252.95 551.5,-247.39 544,-242 498.56,-209.33 519.04,-169.82 473,-138 428.48,-107.23 368.69,-93.6 321.64,-87.59"/>
<polygon fill="black" stroke="black" stroke-width="1.3" points="321.85,-84.09 311.5,-86.39 321.02,-91.04 321.85,-84.09"/>
</g>
<!-- /lib/features/core/data/osm/weather_repository_osm.dart&#45;&gt;/lib/features/core/domain/repositories/weather_repository.dart -->
<g id="edge12" class="edge">
<title>/lib/features/core/data/osm/weather_repository_osm.dart&#45;&gt;/lib/features/core/domain/repositories/weather_repository.dart</title>
<path fill="none" stroke="black" stroke-width="1.3" d="M597.58,-257.98C584.56,-254.95 570.9,-252.1 558,-250 516.18,-243.2 504.46,-250.76 463,-242 401.59,-229.02 333.78,-203.99 289.25,-185.98"/>
<polygon fill="black" stroke="black" stroke-width="1.3" points="290.42,-182.68 279.84,-182.14 287.77,-189.16 290.42,-182.68"/>
</g>
<!-- /lib/features/core/data/osm/weather_repository_osm.dart&#45;&gt;/lib/features/core/data/osm/osm_api.dart -->
<g id="edge9" class="edge">
<title>/lib/features/core/data/osm/weather_repository_osm.dart&#45;&gt;/lib/features/core/data/osm/osm_api.dart</title>
<path fill="none" stroke="black" stroke-width="1.3" d="M661,-257.81C661,-240.21 661,-212.61 661,-192.07"/>
<polygon fill="black" stroke="black" stroke-width="1.3" points="664.5,-192.07 661,-182.07 657.5,-192.07 664.5,-192.07"/>
</g>
<!-- /lib/features/core/data/weatherapi/models/weather_api_models.dart -->
<g id="node9" class="node">
<title>/lib/features/core/data/weatherapi/models/weather_api_models.dart</title>
<path fill="Lavender" stroke="black" stroke-width="1.3" d="M926,-100C926,-100 796,-100 796,-100 790,-100 784,-94 784,-88 784,-88 784,-76 784,-76 784,-70 790,-64 796,-64 796,-64 926,-64 926,-64 932,-64 938,-70 938,-76 938,-76 938,-88 938,-88 938,-94 932,-100 926,-100"/>
<text text-anchor="middle" x="861" y="-78.5" font-family="Arial" font-size="15.00">weather_api_models</text>
</g>
<!-- /lib/features/core/data/weatherapi/repository.dart -->
<g id="node10" class="node">
<title>/lib/features/core/data/weatherapi/repository.dart</title>
<path fill="Lavender" stroke="black" stroke-width="1.3" d="M847.5,-294C847.5,-294 788.5,-294 788.5,-294 782.5,-294 776.5,-288 776.5,-282 776.5,-282 776.5,-270 776.5,-270 776.5,-264 782.5,-258 788.5,-258 788.5,-258 847.5,-258 847.5,-258 853.5,-258 859.5,-264 859.5,-270 859.5,-270 859.5,-282 859.5,-282 859.5,-288 853.5,-294 847.5,-294"/>
<text text-anchor="middle" x="818" y="-272.5" font-family="Arial" font-size="15.00">repository</text>
</g>
<!-- /lib/features/core/data/weatherapi/repository.dart&#45;&gt;/lib/features/core/domain/entities/search_query.dart -->
<g id="edge14" class="edge">
<title>/lib/features/core/data/weatherapi/repository.dart&#45;&gt;/lib/features/core/domain/entities/search_query.dart</title>
<path fill="none" stroke="black" stroke-width="1.3" d="M786.49,-257.87C779.29,-254.69 771.54,-251.8 764,-250 738.8,-243.99 554.88,-252.04 531,-242 469.28,-216.04 483.75,-163.88 422,-138 370.53,-116.43 223.61,-148.62 171,-130 157.1,-125.08 143.78,-115.81 133.07,-106.79"/>
<polygon fill="black" stroke="black" stroke-width="1.3" points="135.24,-104.03 125.43,-100.02 130.59,-109.27 135.24,-104.03"/>
</g>
<!-- /lib/features/core/data/weatherapi/repository.dart&#45;&gt;/lib/features/core/domain/entities/search_response.dart -->
<g id="edge15" class="edge">
<title>/lib/features/core/data/weatherapi/repository.dart&#45;&gt;/lib/features/core/domain/entities/search_response.dart</title>
<path fill="none" stroke="black" stroke-width="1.3" d="M786.49,-257.9C779.29,-254.71 771.53,-251.81 764,-250 741.73,-244.64 575.84,-256.36 558,-242 520.8,-212.05 565.82,-170.68 531,-138 501.35,-110.17 395.79,-95.57 321.83,-88.58"/>
<polygon fill="black" stroke="black" stroke-width="1.3" points="321.89,-85.07 311.62,-87.64 321.26,-92.04 321.89,-85.07"/>
</g>
<!-- /lib/features/core/data/weatherapi/repository.dart&#45;&gt;/lib/features/core/domain/repositories/weather_repository.dart -->
<g id="edge16" class="edge">
<title>/lib/features/core/data/weatherapi/repository.dart&#45;&gt;/lib/features/core/domain/repositories/weather_repository.dart</title>
<path fill="none" stroke="black" stroke-width="1.3" d="M786.78,-257.99C779.5,-254.76 771.64,-251.81 764,-250 711.43,-237.51 574.42,-250.08 521,-242 442.44,-230.11 354.5,-203.83 298.27,-185.28"/>
<polygon fill="black" stroke="black" stroke-width="1.3" points="299.08,-181.87 288.49,-182.03 296.87,-188.51 299.08,-181.87"/>
</g>
<!-- /lib/features/core/data/weatherapi/weather_api.dart -->
<g id="node11" class="node">
<title>/lib/features/core/data/weatherapi/weather_api.dart</title>
<path fill="Lavender" stroke="black" stroke-width="1.3" d="M898,-182C898,-182 824,-182 824,-182 818,-182 812,-176 812,-170 812,-170 812,-158 812,-158 812,-152 818,-146 824,-146 824,-146 898,-146 898,-146 904,-146 910,-152 910,-158 910,-158 910,-170 910,-170 910,-176 904,-182 898,-182"/>
<text text-anchor="middle" x="861" y="-160.5" font-family="Arial" font-size="15.00">weather_api</text>
</g>
<!-- /lib/features/core/data/weatherapi/repository.dart&#45;&gt;/lib/features/core/data/weatherapi/weather_api.dart -->
<g id="edge13" class="edge">
<title>/lib/features/core/data/weatherapi/repository.dart&#45;&gt;/lib/features/core/data/weatherapi/weather_api.dart</title>
<path fill="none" stroke="black" stroke-width="1.3" d="M824.72,-257.81C831.66,-240.05 842.59,-212.1 850.64,-191.51"/>
<polygon fill="black" stroke="black" stroke-width="1.3" points="853.95,-192.65 854.33,-182.07 847.43,-190.11 853.95,-192.65"/>
</g>
<!-- /lib/features/core/data/weatherapi/weather_api.dart&#45;&gt;/lib/features/core/data/weatherapi/models/weather_api_models.dart -->
<g id="edge17" class="edge">
<title>/lib/features/core/data/weatherapi/weather_api.dart&#45;&gt;/lib/features/core/data/weatherapi/models/weather_api_models.dart</title>
<path fill="none" stroke="black" stroke-width="1.3" d="M861,-145.64C861,-135.3 861,-121.94 861,-110.22"/>
<polygon fill="black" stroke="black" stroke-width="1.3" points="864.5,-110.05 861,-100.05 857.5,-110.05 864.5,-110.05"/>
</g>
<!-- /bin/practice_1.dart -->
<g id="node12" class="node">
<title>/bin/practice_1.dart</title>
<path fill="Lavender" stroke="black" stroke-width="1.3" d="M849,-496C849,-496 787,-496 787,-496 781,-496 775,-490 775,-484 775,-484 775,-472 775,-472 775,-466 781,-460 787,-460 787,-460 849,-460 849,-460 855,-460 861,-466 861,-472 861,-472 861,-484 861,-484 861,-490 855,-496 849,-496"/>
<text text-anchor="middle" x="818" y="-474.5" font-family="Arial" font-size="15.00">practice_1</text>
</g>
<!-- /bin/practice_1.dart&#45;&gt;/lib/features/core/presentation/app.dart -->
<g id="edge20" class="edge">
<title>/bin/practice_1.dart&#45;&gt;/lib/features/core/presentation/app.dart</title>
<path fill="none" stroke="black" stroke-width="1.3" d="M774.6,-476.28C663.78,-474.12 376.52,-466.4 340,-444 288.26,-412.27 259.89,-342.86 247.58,-304.26"/>
<polygon fill="black" stroke="black" stroke-width="1.3" points="250.79,-302.79 244.52,-294.24 244.09,-304.83 250.79,-302.79"/>
</g>
<!-- /bin/practice_1.dart&#45;&gt;/lib/features/core/data/weatherapi/repository.dart -->
<g id="edge18" class="edge">
<title>/bin/practice_1.dart&#45;&gt;/lib/features/core/data/weatherapi/repository.dart</title>
<path fill="none" stroke="black" stroke-width="1.3" d="M818,-459.95C818,-425.19 818,-345.9 818,-304.04"/>
<polygon fill="black" stroke="black" stroke-width="1.3" points="821.5,-304.01 818,-294.01 814.5,-304.01 821.5,-304.01"/>
</g>
<!-- /bin/practice_1.dart&#45;&gt;/lib/features/core/data/weatherapi/weather_api.dart -->
<g id="edge19" class="edge">
<title>/bin/practice_1.dart&#45;&gt;/lib/features/core/data/weatherapi/weather_api.dart</title>
<path fill="none" stroke="black" stroke-width="1.3" d="M854.57,-459.94C860.37,-455.58 865.57,-450.3 869,-444 913.85,-361.57 886.26,-244.19 870.17,-191.91"/>
<polygon fill="black" stroke="black" stroke-width="1.3" points="873.4,-190.53 867.04,-182.07 866.73,-192.66 873.4,-190.53"/>
</g>
</g>
</svg>
